<svg xmlns="http://www.w3.org/2000/svg" xmlns:xlink="http://www.w3.org/1999/xlink" width="585" height="185" version="1.1" viewBox="0 0 585 185"><title>mabl_logo_horizantal_dark@1x</title><desc>Created with Sketch.</desc><defs><path id="path-1" d="M23.9802785,29.0463871 C43.226723,18.7550407 65.3524504,5.08962099 65.3524504,5.08962099 C65.3524504,5.08962099 81.0187893,-5.80723689 100.055831,4.28792281 C119.092873,14.3830825 151.599218,32.8365116 151.599218,32.8365116 C151.599218,32.8365116 159.48125,36.9243977 162.710379,40.129295 C165.939508,43.3341923 167.292118,47.0105736 167.292118,55.0781943 L167.292118,124.117568 C167.292118,124.117568 167.606032,135.928889 160.10401,140.29022 C152.437196,144.489986 98.055008,174.371452 98.055008,174.371452 C98.055008,174.371452 88.6273201,181.171461 74.0328089,176.076295 C24.9913314,149.12766 13.5412583,142.779715 13.5412583,142.779715 C13.5412583,142.779715 0.29753078,138.353958 0.0726449889,116.196258 C-0.152240803,94.0385568 0.216802548,73.4689704 0.216802548,55.9370135 C0.0726449889,40.129295 4.73383411,39.3377335 23.9802785,29.0463871 Z"/><filter id="filter-3" width="106.2%" height="111.5%" x="-3.1%" y="-5.8%" filterUnits="objectBoundingBox"><feGaussianBlur in="SourceGraphic" stdDeviation="1.691"/></filter><linearGradient id="linearGradient-4" x1="55.616%" x2="55.616%" y1="16.974%" y2="80.23%"><stop offset="0%" stop-color="#F8F8F8"/><stop offset="100%" stop-color="#E6E6E6"/></linearGradient><filter id="filter-5" width="112.5%" height="107.9%" x="-6.3%" y="-3.9%" filterUnits="objectBoundingBox"><feGaussianBlur in="SourceGraphic" stdDeviation="1.691"/></filter><path id="path-6" d="M91.2019349,0.109324147 C89.4226518,1.00065788 87.8129985,4.21251111 88.7029958,5.99446606 C89.0941713,6.7776787 89.8709742,7.62316903 91.2019349,7.97422736 C91.2019349,6.08546398 91.2019349,0.109324147 91.2019349,0.109324147 Z"/><path id="path-8" d="M82.7533071,78.1552525 C84.1772077,78.8682719 85.2338898,79.4475269 86.931093,79.8998881 C86.9104881,75.7502392 86.951698,51.2661285 86.931093,46.7434652 C61.9090712,35.2071386 5.9780941,4.20494467 0.0339327631,0.633214408 C0.0339327631,6.09267074 0.0339327631,4.42275676 0.0339327631,33.4915464 C45.0077184,57.7610756 82.7533071,78.1552525 82.7533071,78.1552525 Z"/><filter id="filter-9" width="116.1%" height="117.7%" x="-8.1%" y="-6.3%" filterUnits="objectBoundingBox"><feOffset dx="0" dy="2" in="SourceAlpha" result="shadowOffsetOuter1"/><feGaussianBlur in="shadowOffsetOuter1" result="shadowBlurOuter1" stdDeviation="2"/><feColorMatrix in="shadowBlurOuter1" type="matrix" values="0 0 0 0 0 0 0 0 0 0 0 0 0 0 0 0 0 0 0.5 0"/></filter><path id="path-10" d="M2.4295709,34.7570793 C2.49171052,23.3682039 2.6041689,2.12943753 2.6041689,2.12943753 C2.6041689,2.12943753 0.496132697,0.902619962 0.0372667501,0.642498654 C0.0372667501,0.642498654 0.0372667501,33.4930895 0.0372667501,33.4930895 C1.58624386,34.3096671 2.4295709,34.7570793 2.4295709,34.7570793 Z"/><filter id="filter-11" width="645.4%" height="141%" x="-272.7%" y="-14.7%" filterUnits="objectBoundingBox"><feOffset dx="0" dy="2" in="SourceAlpha" result="shadowOffsetOuter1"/><feGaussianBlur in="shadowOffsetOuter1" result="shadowBlurOuter1" stdDeviation="2"/><feColorMatrix in="shadowBlurOuter1" type="matrix" values="0 0 0 0 0 0 0 0 0 0 0 0 0 0 0 0 0 0 0.5 0"/></filter><path id="path-12" d="M86.8934784,79.9371597 C93.2527771,80.5008816 105.143372,72.0032523 107.96453,66.2431617 C110.785687,60.4830711 111.441345,54.0557065 107.96453,50.2055906 C104.277646,46.3239602 101.276383,45.5358576 97.4793271,45.1782159 C93.6822708,44.8205743 88.6945809,46.2153507 86.8934784,46.7158444 C86.8934784,67.6870922 86.8934784,70.1837685 86.8934784,79.9371597 Z"/><filter id="filter-13" width="159.7%" height="140.2%" x="-29.9%" y="-14.3%" filterUnits="objectBoundingBox"><feOffset dx="0" dy="2" in="SourceAlpha" result="shadowOffsetOuter1"/><feGaussianBlur in="shadowOffsetOuter1" result="shadowBlurOuter1" stdDeviation="2"/><feColorMatrix in="shadowBlurOuter1" type="matrix" values="0 0 0 0 0 0 0 0 0 0 0 0 0 0 0 0 0 0 0.5 0"/></filter></defs><g id="exportable-logo" fill="none" fill-rule="evenodd" stroke="none" stroke-width="1"><g id="mabl_logo_horizantal_dark"><g id="Group-2" transform="translate(6.000000, 2.000000)"><g id="mabl-copy" fill="#FFF" transform="translate(223.002232, 1.301652)"><path id="Fill-1" d="M76.2534086,61.7745941 C76.2534086,76.1153674 76.2543877,89.8306342 76.2534086,103.546394 C76.2529191,109.933171 76.300402,116.320935 76.23187,122.707712 C76.1711702,128.364895 74.8675931,129.613935 69.1216722,129.679051 C65.0024079,129.726408 60.880696,129.758966 56.7629002,129.664252 C51.619082,129.54586 50.3267638,128.29238 50.30033,123.038717 C50.2273924,108.188856 50.2685116,93.3385025 50.264106,78.4881485 C50.2636164,76.8918243 50.2900502,75.2935268 50.2484415,73.6981891 C50.0090689,64.5109385 45.7733001,60.3607915 36.6365124,60.3361264 C26.3821631,60.3089948 26.0536989,60.633094 26.0532094,70.7492317 C26.0532094,86.877237 26.056636,103.004749 26.0522304,119.132261 C26.0488038,129.572498 25.9313203,129.688917 15.794944,129.689904 C12.7844299,129.690397 9.77244735,129.737261 6.76340186,129.675598 C1.31070009,129.565098 0.0262140951,128.208025 0.0183818635,122.312577 C-0.0119680342,100.116961 0.00418594359,77.9208516 0.00516497255,55.7252355 C0.00516497255,54.2882477 0.0271931241,52.8512599 0.0262140951,51.4142721 C0.0237665227,47.4579925 1.85406116,44.7275677 5.49066421,43.2861402 C23.3275928,36.2151538 41.3666908,33.2282121 60.0039755,40.2932789 C61.4309102,40.8344308 63.4080592,40.5073718 64.955904,40.0219629 C75.8647341,36.601409 87.0330069,35.7568766 98.31191,36.8081024 C115.390091,38.399987 125.892624,50.1346475 126.384097,68.9358547 C126.859415,87.1273409 126.499622,105.339546 126.537315,123.543365 C126.545637,127.701405 124.595411,129.727888 120.451671,129.688424 C116.173804,129.64748 111.894958,129.725915 107.617091,129.678558 C101.67977,129.612949 100.445214,128.429518 100.400179,122.27262 C100.31843,110.93556 100.378151,99.5980076 100.37864,88.2599616 C100.37864,85.0668198 100.200946,81.8613454 100.408011,78.6810295 C101.527531,61.5032782 93.9865601,58.4013972 78.5516791,61.303491 C77.6348185,61.4761466 76.7233425,61.6784003 76.2534086,61.7745941"/><path id="Fill-4" d="M259.123706,60.7054588 L259.123706,95.3840741 C259.123706,109.080102 259.604409,109.526047 273.409696,108.634157 C273.725433,108.613439 274.043618,108.616892 274.357396,108.582361 C281.870465,107.744734 286.159101,103.345963 286.357844,95.7264254 C286.566377,87.75763 286.528684,79.7769953 286.383788,71.8052401 C286.278542,66.023251 283.308658,61.6560512 277.693437,60.8884738 C271.74192,60.0750193 265.597535,60.7054588 259.123706,60.7054588 M259.123706,37.8044214 C262.719679,37.4013939 265.822222,36.7349433 268.915464,36.7734208 C275.06964,36.8498826 281.328572,36.6806801 287.348132,37.743252 C301.671325,40.2724097 310.978953,50.1093386 311.93987,64.7594121 C312.772534,77.4619305 312.737779,90.313426 311.868401,103.014465 C310.903568,117.108587 301.185727,127.466936 287.294285,130.567337 C271.418841,134.11023 255.797455,132.523278 240.59803,126.93713 C234.0449,124.528338 233.084473,122.83286 233.082025,115.923183 C233.067829,80.134639 233.068319,44.346095 233.081046,8.557551 C233.083494,1.75541405 234.280846,0.581849339 241.149713,0.524626343 C244.954709,0.492561734 248.759705,0.53843879 252.565191,0.527586153 C257.02271,0.514267008 259.233357,2.51509865 259.150629,7.22908956 C259.005733,15.5343167 259.118811,23.8439836 259.123706,32.1521706 C259.124685,33.882673 259.123706,35.6131753 259.123706,37.8044214"/><path id="Fill-6" d="M191.389049,95.1739275 C184.51235,95.1739275 178.225515,94.8202302 171.99938,95.2888668 C167.245216,95.6465106 164.977785,98.7740432 164.966036,103.305019 C164.953799,108.104351 167.327454,111.094746 172.363579,111.448443 C177.691455,111.822366 183.078562,111.671909 188.41329,111.330051 C189.466726,111.261975 191.151634,109.348458 191.252964,108.173414 C191.604925,104.091342 191.389049,99.9589539 191.389049,95.1739275 M190.992053,74.8079674 C192.153671,66.6739159 190.392887,61.9638714 185.135012,59.5876372 C178.965661,56.7994961 169.382926,58.723866 164.929323,63.6450436 C159.598021,69.5365456 159.597042,69.5390121 152.158869,66.445024 C150.115636,65.5950651 148.063102,64.7628652 146.042875,63.8596298 C140.085974,61.1967873 139.420234,58.8442316 142.829702,53.1194655 C147.119318,45.9162743 153.476153,41.3315284 161.286356,38.9720665 C172.265187,35.6555992 183.414369,35.5164881 194.555718,38.3505063 C207.536174,41.6516812 215.687569,50.2943268 216.596597,63.3776741 C217.898706,82.1216582 217.424366,100.995381 217.553108,119.81484 C217.582479,124.025663 214.710987,126.275612 211.043545,127.730359 C201.121576,131.666906 190.650861,132.553863 180.244762,132.221871 C171.489306,131.942169 162.617836,130.72026 154.106158,128.635074 C145.960637,126.640162 140.96661,120.457119 139.771705,111.940759 C139.112819,107.24798 138.727571,102.358867 139.268974,97.6823666 C140.782063,84.6202313 148.596672,77.667144 163.588543,76.1561609 C172.539804,75.2544055 181.579668,75.2400997 190.992053,74.8079674"/><path id="Fill-8" d="M353.988675,65.3103807 C353.988675,84.1594382 354.00336,103.008496 353.980353,121.85706 C353.972521,128.55659 352.848106,129.675891 346.302808,129.723742 C342.974109,129.748407 339.645411,129.738541 336.316712,129.726208 C328.893715,129.697103 328.010631,128.876743 327.994966,121.557626 C327.9607,105.264858 327.982239,88.9715961 327.982239,72.678828 C327.982239,51.2739746 327.965106,29.8691211 327.995945,8.46476095 C328.005736,1.808148 329.190361,0.624717255 335.686218,0.52655022 C339.17254,0.473766939 342.66033,0.492512403 346.147632,0.521617203 C352.711531,0.57637369 353.9735,1.79778866 353.980842,8.28470584 C354.00287,27.293593 353.988675,46.3019869 353.988675,65.3103807"/></g><g id="Group" transform="translate(0.000000, 0.912605)"><g id="Group-3-Copy" transform="translate(2.401488, 0.000000)"><mask id="mask-2" fill="#fff"><use xlink:href="#path-1"/></mask><use id="Mask" fill="#F3F3F3" xlink:href="#path-1"/><path id="Path-16-Copy" fill="#ECECEC" d="M23.9802785,29.0463871 C43.226723,18.7550407 65.3524504,5.08962099 65.3524504,5.08962099 C65.3524504,5.08962099 81.0187893,-5.80723689 100.055831,4.28792281 C119.092873,14.3830825 151.599218,32.8365116 151.599218,32.8365116 C151.599218,32.8365116 159.48125,36.9243977 162.710379,40.129295 C164.357195,41.7637528 165.515952,43.5208377 166.256142,45.920471 C166.884401,47.9572351 142.752815,58.4001509 102.055036,79.1022286 C96.6823752,81.8351847 91.0210053,84.7469333 85.0897775,87.8417376 C80.9847484,85.8643315 71.7928585,80.9804405 68.0621106,79.1022286 C20.9506313,55.3843722 2.73158084,47.0600156 3.95617866,44.4658107 C6.71629797,38.6187359 10.9706217,36.0028349 23.9802785,29.0463871 Z" filter="url(#filter-3)" mask="url(#mask-2)"/><path id="Path-16-Copy-2" fill="url(#linearGradient-4)" d="M85.6530875,176.09181 C92.1076627,176.09181 102.451743,170.817244 110.212784,166.345644 C117.973825,161.874043 149.088808,143.674702 152.116213,141.820194 C156.332881,139.237174 167.98913,137.60065 166.64045,116.303036 C166.64045,91.9997452 166.64045,74.2931076 166.64045,74.2931076 L166.64045,55.2917496 C166.64045,52.1898108 164.522145,45.4555231 165.207252,47.7780674 C165.788759,49.7493997 143.452981,59.8568333 105.783823,79.8938495 C100.810981,82.5390085 91.142929,86.608795 85.6530875,89.6041777 C85.6530875,128.106051 85.6530875,146.457695 85.6530875,176.09181 Z" filter="url(#filter-5)" mask="url(#mask-2)"/><g id="4" mask="url(#mask-2)"><g transform="translate(66.441180, 112.237745)"><polygon id="Path-18-Copy-6" fill="#FDAD2F" fill-rule="evenodd" points="73.806 14.96 73.806 22.861 83.453 17.595 83.453 9.667"/><path id="Line-Copy-5" fill="#18C5CF" fill-rule="nonzero" d="M48.2899995,36.9203705 L67.6223392,26.2355217 C69.3731613,25.289346 70.4510531,23.2390059 69.5062961,21.4855548 C68.5615391,19.7321036 66.3763405,19.0776775 64.6255184,20.0238532 L44.7277722,30.9356163 C42.9769501,31.8817919 42.2137995,33.9708943 43.1585565,35.7243455 C44.1033135,37.4777966 46.5391774,37.8665461 48.2899995,36.9203705 Z"/><path id="Line-Copy-8" fill="#33BE91" fill-opacity=".811" fill-rule="nonzero" d="M36.8745173,43.2186665 C38.8439681,42.4328961 39.6128688,40.0913612 38.6537859,38.3457281 C37.694703,36.6000951 35.5042193,35.9636377 33.7612036,36.9241607 L16.7323864,46.3082251 L19.675496,46.5378359 L5.36139123,38.7045577 C1.10379482,36.4782803 -1.99918615,42.663838 2.25841026,44.8901153 C2.25841026,44.8901153 11.4407879,49.9584374 16.0319767,52.4925984 C18.134846,53.7095472 18.7689597,53.2033144 19.675496,52.6708999 C19.675496,52.6708999 35.8843966,43.8637792 36.8745173,43.2186665 Z"/><path id="Line-Copy-10" fill="#33BE91" fill-rule="nonzero" d="M20.2213002,52.4070074 L37.2966222,43.0036253 C39.0396379,42.0431022 39.6128688,40.0913612 38.6537859,38.3457281 C37.694703,36.6000951 35.5042193,35.9636377 33.7612036,36.9241607 L18.036493,45.6636225 C18.036493,47.4479971 18.036493,51.5541929 18.036493,53.2598285 C18.7775676,53.2598285 19.7818623,52.6491683 20.2213002,52.4070074 Z"/><path id="Line-Copy-6" fill="#CC45BE" fill-rule="nonzero" d="M92.2453364,12.7570532 C92.2453364,12.7570532 98.2565052,9.55889433 100.838123,8.0505728 C100.814705,5.29614619 100.861541,2.80296827 100.838123,0.0985083387 C96.7985789,2.32457838 88.7194911,6.77671847 88.7194911,6.77671847 C86.9764754,7.73724154 86.3409723,9.93101451 87.3000552,11.6766476 C88.2591381,13.4222806 90.5023207,13.7175763 92.2453364,12.7570532 Z"/></g></g><g id="3" mask="url(#mask-2)"><g transform="translate(76.047134, 96.203782)"><polygon id="Path-18-Copy-5" fill="#FDAD2F" fill-rule="evenodd" stroke="none" points="74.446 9.344 74.446 17.236 84.093 11.947 84.093 4.008"/><polygon id="Path-18-Copy-8" fill="#FDAD2F" fill-rule="evenodd" stroke="none" points="28.818 34.422 28.818 42.33 38.465 37.013 38.465 29.079"/><path id="Line-Copy-9" fill="#CC45BE" fill-opacity=".701" fill-rule="nonzero" stroke="none" d="M3.99790667,51.1593941 C4.6531654,51.4620752 7.81074752,53.2463614 8.38539788,53.5385628 C13.1967866,50.9048471 22.475409,45.7676522 22.475409,45.7676522 C24.6578247,44.2871312 25.0159077,42.5458476 24.066865,40.8529872 C23.1178224,39.1601269 20.9942186,38.7922214 19.2196102,39.6928543 C19.2196102,39.6928543 12.1333623,43.5617951 8.38539788,45.662928 C6.1934564,44.4130315 4.95308338,43.7163157 4.95308338,43.7163157 C2.637018,42.9189953 1.16598448,43.9926301 0.630852489,45.3830089 C-0.240202869,47.646183 0.715911988,49.3083272 3.99790667,51.1593941 Z"/><path id="Line-Copy-11" fill="#CC45BE" fill-rule="nonzero" stroke="none" d="M8.39730512,53.5497652 C13.1316938,50.943152 22.0539651,46.0049981 22.0539651,46.0049981 C23.8285734,45.1043653 25.3187845,43.1443438 24.2451849,41.1425868 C23.1715853,39.1408299 21.0597445,38.7608548 19.2851361,39.6614876 L8.39730512,45.652087 C8.39730512,48.8003847 8.39730512,52.578599 8.39730512,53.5497652 Z"/><path id="Line-Copy-3" fill="#6A67CE" fill-rule="nonzero" stroke="none" d="M47.9363025,31.8604045 L65.8082696,22.0642824 C67.5647387,21.1286633 68.3192091,19.0325203 67.3849928,17.2734137 C66.4507766,15.514307 64.2698576,14.9938946 62.5133885,15.9295137 L44.5634292,25.6759901 C42.8069601,26.6116092 42.1403924,28.796116 43.0746087,30.5552227 C44.0088249,32.3143293 46.1798334,32.7960236 47.9363025,31.8604045 Z"/><mask id="mask-7" fill="#fff"><use xlink:href="#path-6"/></mask><use id="Line-Copy-4" fill="#33BE91" fill-rule="nonzero" stroke="none" xlink:href="#path-6"/></g></g><g id="2" mask="url(#mask-2)"><g transform="translate(91.256560, 80.971516)"><polygon id="Path-18-Copy-9" fill="#FDAD2F" fill-rule="evenodd" points="32.82 23.823 32.82 31.756 42.467 26.463 42.467 18.519"/><path id="Line-Copy" fill="#18C5CF" fill-rule="nonzero" d="M53.2516066,20.546821 C53.2516066,20.546821 68.2845504,12.2528266 75.9808201,8.04448212 C75.9627892,4.21032337 75.9808201,3.60422849 75.9808201,0.15373855 C66.3679702,5.44905897 50.2788257,14.2927495 50.2788257,14.2927495 C48.4994002,15.1837982 47.5211429,17.2911763 48.4108556,19.0732738 C49.3005683,20.8553713 51.4721811,21.4378697 53.2516066,20.546821 Z"/><path id="Line-Copy-2" fill="#33BE91" fill-rule="nonzero" d="M19.0788342,39.3048777 L25.9443751,35.5568913 C27.7376055,34.6940474 28.7288088,32.3992529 27.8672587,30.6033298 C27.0057086,28.8074067 24.8215984,28.3549585 23.0283681,29.2178024 L15.8661674,33.1914631 C14.072937,34.0543069 13.1589816,36.3003516 14.0205317,38.0962747 C14.8820818,39.8921978 17.2856038,40.1677215 19.0788342,39.3048777 Z"/><path id="Line-Copy-13" fill="#6A67CE" fill-rule="nonzero" d="M5.55367826,46.7290358 L9.94906758,44.3694132 C11.742298,43.5065694 12.6869005,41.521895 11.8253504,39.7259719 C10.9638003,37.9300487 8.81167554,37.1736385 7.01844517,38.0364823 L2.70832247,40.4733604 C0.915092096,41.3362042 0.185340843,43.382282 1.04689095,45.1782051 C1.90844105,46.9741282 3.76044788,47.5918796 5.55367826,46.7290358 Z"/></g></g><g id="1" mask="url(#mask-2)"><g transform="translate(95.259041, 65.739251)"><polygon id="Path-18-Copy-3" fill="#FDAD2F" fill-rule="evenodd" points="48.83 12.859 48.83 20.764 58.477 15.477 58.477 7.554"/><polygon id="Path-18-Copy-4" fill="#33BE91" fill-rule="evenodd" points="62.439 5.407 62.439 13.264 71.962 8.067 71.962 .152"/><path id="Line" fill="#CC45BE" fill-rule="nonzero" d="M26.8446973,33.060175 L42.0197428,24.5066949 C43.7943512,23.6060621 44.435192,21.5813736 43.5359096,19.8041004 C42.6366271,18.0268273 40.1271506,17.7431465 38.3525422,18.6437793 L23.6474892,26.7312849 C21.8728808,27.6319178 21.1039072,29.6956042 22.0031897,31.4728773 C22.9024722,33.2501504 25.070089,33.9608078 26.8446973,33.060175 Z"/><path id="Line-Copy-12" fill="#18C5CF" fill-rule="nonzero" d="M5.66691096,44.5265622 L16.7311712,38.4618046 C18.5057795,37.5611717 19.2714572,35.5749522 18.3721747,33.7976791 C17.4728923,32.0204059 15.2489799,31.4229623 13.4743715,32.3235952 L2.93406569,38.0864914 C1.15945734,38.9871243 -0.368611215,40.721088 0.644079051,42.930976 C1.65676932,45.140864 3.89230261,45.427195 5.66691096,44.5265622 Z"/></g></g></g><g id="glasses-copy" fill-rule="nonzero" opacity=".8" transform="translate(0.000000, 52.912080)"><g id="Line-Copy-13"><use fill="#000" fill-opacity="1" filter="url(#filter-9)" xlink:href="#path-8"/><use fill="#1F252E" fill-rule="evenodd" xlink:href="#path-8"/></g><g id="Line-Copy-7"><use fill="#000" fill-opacity="1" filter="url(#filter-11)" xlink:href="#path-10"/><use fill="#1F252E" fill-rule="evenodd" xlink:href="#path-10"/></g><g id="Line-Copy-15"><use fill="#000" fill-opacity="1" filter="url(#filter-13)" xlink:href="#path-12"/><use fill="#0C0F13" fill-rule="evenodd" xlink:href="#path-12"/></g></g></g></g></g></g></svg>